HIERARCHY
ROOT RootJoint
{
    OFFSET   0.000000   0.000000   0.000000
    CHANNELS 6 Xposition Yposition Zposition Xrotation Yrotation Zrotation
    JOINT pelvis_lowerback
    {
        OFFSET   0.000000   0.093605   0.000000
        CHANNELS 3 Xrotation Yrotation Zrotation
        JOINT lowerback_torso
        {
            OFFSET   0.000000   0.100000   0.000000
            CHANNELS 3 Xrotation Yrotation Zrotation
            JOINT torso_head
            {
                OFFSET   0.000000   0.282350   0.000000
                CHANNELS 3 Xrotation Yrotation Zrotation
                End Site
                {
                    OFFSET   0.000000   0.192650   0.000000
                }
            }
            JOINT rTorso_Clavicle
            {
                OFFSET  -0.001000   0.157500   0.000000
                CHANNELS 3 Xrotation Yrotation Zrotation
                JOINT rShoulder
                {
                    OFFSET  -0.117647   0.000000   0.000000
                    CHANNELS 3 Xrotation Yrotation Zrotation
                    JOINT rElbow
                    {
                        OFFSET  -0.245000   0.000000   0.000000
                        CHANNELS 3 Xrotation Yrotation Zrotation
                        JOINT rWrist
                        {
                            OFFSET  -0.240000   0.000000   0.000000
                            CHANNELS 3 Xrotation Yrotation Zrotation
                            End Site
                            {
                                OFFSET  -0.116353  -0.002500   0.000000
                            }
                        }
                    }
                }
            }
            JOINT lTorso_Clavicle
            {
                OFFSET   0.001000   0.157500   0.000000
                CHANNELS 3 Xrotation Yrotation Zrotation
                JOINT lShoulder
                {
                    OFFSET   0.117647   0.000000   0.000000
                    CHANNELS 3 Xrotation Yrotation Zrotation
                    JOINT lElbow
                    {
                        OFFSET   0.245000   0.000000   0.000000
                        CHANNELS 3 Xrotation Yrotation Zrotation
                        JOINT lWrist
                        {
                            OFFSET   0.240000   0.000000   0.000000
                            CHANNELS 3 Xrotation Yrotation Zrotation
                            End Site
                            {
                                OFFSET   0.116353  -0.002500   0.000000
                            }
                        }
                    }
                }
            }
        }
    }
    JOINT rHip
    {
        OFFSET  -0.100000  -0.051395   0.000000
        CHANNELS 3 Xrotation Yrotation Zrotation
        JOINT rKnee
        {
            OFFSET   0.000000  -0.410000   0.000000
            CHANNELS 3 Xrotation Yrotation Zrotation
            JOINT rAnkle
            {
                OFFSET   0.000000  -0.390000   0.000000
                CHANNELS 3 Xrotation Yrotation Zrotation
                JOINT rToeJoint
                {
                    OFFSET   0.000000  -0.050000   0.130000
                    CHANNELS 3 Xrotation Yrotation Zrotation
                    End Site
                    {
                        OFFSET  -0.010000   0.002000   0.060000
                    }
                }
            }
        }
    }
    JOINT lHip
    {
        OFFSET   0.100000  -0.051395   0.000000
        CHANNELS 3 Xrotation Yrotation Zrotation
        JOINT lKnee
        {
            OFFSET   0.000000  -0.410000   0.000000
            CHANNELS 3 Xrotation Yrotation Zrotation
            JOINT lAnkle
            {
                OFFSET   0.000000  -0.390000   0.000000
                CHANNELS 3 Xrotation Yrotation Zrotation
                JOINT lToeJoint
                {
                    OFFSET   0.000000  -0.050000   0.130000
                    CHANNELS 3 Xrotation Yrotation Zrotation
                    End Site
                    {
                        OFFSET   0.010000   0.002000   0.060000
                    }
                }
            }
        }
    }
}
MOTION
Frames: 12
Frame Time:   0.008333
 -2.376719   0.925631   3.975860   0.000000   0.000000   0.000000   0.000000   0.000000   0.000000   0.000000   0.000000   0.000000   0.000000   0.000000   0.000000   0.000000   0.000000   0.000000   0.000000   0.000000   0.000000   0.000000   0.000000   0.000000   0.000000   0.000000   0.000000   0.000000   0.000000   0.000000   0.000000   0.000000   0.000000   0.000000   0.000000   0.000000   0.000000   0.000000   0.000000   0.000000   0.000000   0.000000   0.000000   0.000000   0.000000   0.000000   0.000000   0.000000   0.000000   0.000000   0.000000   0.000000   0.000000   0.000000   0.000000   0.000000   0.000000   0.000000   0.000000   0.000000   0.000000   0.000000   0.000000
 -2.376322   0.925847   3.976238  -0.305697   0.200414  -0.063107   0.289914  -0.159074   0.130486   0.087000  -0.139346   0.057817  -0.087624   0.131274   0.048554  -0.049895  -0.435406  -0.303826   0.216485   0.239915   2.397736   0.018444   0.951299  -0.002094   0.181005  -0.202908  -2.446688   0.011848   0.494778   0.186283   0.718298  -0.091409  -2.434083   0.024953  -1.338421   0.009578   0.262592   0.363383   2.176655   0.141185  -0.178938  -0.004582   0.646713   0.000386   0.000118  -1.142167  -0.481410   0.146772  -0.384087   0.000268   0.001538  -0.116008   0.091727   0.012104   1.893699   0.000934   0.004812  -1.901661   0.646797   0.294503   0.077288  -0.000165   0.000635
 -2.375711   0.926281   3.977077  -0.662839   0.375668  -0.148664   0.512776  -0.323316   0.314098   0.189971  -0.293737   0.160963  -0.142312   0.256777   0.110600  -0.098133  -0.884595  -0.012186   0.415451   0.476198   5.264137   0.041670   1.866575  -0.002615   0.382720  -0.127977  -4.249169   0.032084   0.982464  -0.235017   1.416929  -0.222705  -5.354164   0.055858  -2.626350   0.015519   0.557795   0.369240   3.653168   0.298337  -0.349917  -0.040442   1.342161   0.001056   0.000096  -2.213672  -0.938774   0.273901  -0.810753   0.000231   0.002908  -0.054198   0.201291   0.026914   3.933692   0.002459   0.008807  -3.677700   1.252851   0.591618   0.088501  -0.000154   0.000595
 -2.374983   0.926595   3.978228  -1.001125   0.528632  -0.242690   0.658613  -0.496545   0.522827   0.250537  -0.458914   0.283051  -0.193581   0.373743   0.178640  -0.139780  -1.332376   0.677338   0.598659   0.695568   8.440822   0.063859   2.716456  -0.001869   0.579817  -0.023263  -5.355938   0.060100   1.444792  -1.072575   2.069413  -0.378477  -8.463040   0.084440  -3.829766   0.018186   0.843094   0.298823   4.387248   0.412799  -0.511122  -0.106627   2.001064   0.001776  -0.000021  -3.212678  -1.368720   0.384120  -1.207424   0.000002   0.003824   0.132471   0.304390   0.040002   5.917469   0.004077   0.011235  -5.334289   1.810003   0.886645   0.106189  -0.000156   0.000601
 -2.374217   0.926538   3.979567  -1.311066   0.666048  -0.340196   0.745197  -0.680355   0.741328   0.269046  -0.634987   0.411275  -0.247483   0.482566   0.247556  -0.169112  -1.781289   1.614464   0.770271   0.896272  11.833036   0.082500   3.500895  -0.000438   0.763078   0.045210  -5.939286   0.099794   1.884988  -2.169102   2.670784  -0.552856 -11.598174   0.107336  -4.950738   0.018776   1.111258   0.222410   4.571587   0.475824  -0.662875  -0.195555   2.608606   0.002414  -0.000166  -4.145192  -1.772399   0.479514  -1.576533  -0.000298   0.004378   0.409886   0.399985   0.052907   7.812836   0.005507   0.012478  -6.882070   2.321722   1.177428   0.121936  -0.000154   0.000582
 -2.373450   0.925926   3.981002  -1.595376   0.790143  -0.440236   0.789642  -0.873684   0.964628   0.257405  -0.820715   0.547168  -0.303486   0.583838   0.312001  -0.181538  -2.231130   2.711245   0.930864   1.077217  15.317380   0.096551   4.223432   0.001260   0.929743   0.063412  -6.132646   0.152707   2.304526  -3.407422   3.224954  -0.742767 -14.681323   0.123639  -5.994289   0.018256   1.361834   0.156002   4.392047   0.489592  -0.805150  -0.300612   3.164740   0.002924  -0.000313  -5.015947  -2.150952   0.562047  -1.919572  -0.000605   0.004655   0.755465   0.488765   0.066796   9.615126   0.006662   0.012868  -8.328756   2.791773   1.462324   0.134405  -0.000146   0.000538
 -2.372670   0.924614   3.982460  -1.858070   0.900234  -0.543896   0.805704  -1.074458   1.196535   0.227047  -1.014007   0.702133  -0.360228   0.678145   0.368100  -0.173432  -2.678123   3.930122   1.077302   1.235691  18.713491   0.105684   4.889177   0.002974   1.080687   0.035622  -6.002587   0.218561   2.702162  -4.713067   3.734983  -0.946386 -17.667458   0.133614  -6.966320   0.017247   1.596690   0.099239   3.976804   0.458381  -0.938029  -0.418318   3.672294   0.003309  -0.000457  -5.829124  -2.505594   0.633472  -2.237729  -0.000890   0.004729   1.151905   0.571299   0.080276  11.324997   0.007568   0.012619  -9.681127   3.223613   1.740055   0.143695  -0.000134   0.000480
 -2.371706   0.922040   3.983524  -2.024729   0.850094  -0.545195   0.932257  -1.153482   1.380469   0.025034  -1.118081   0.818003  -0.557827   0.764857   0.370879  -0.021119  -3.175596   4.605814   1.338163   1.414535  21.922178   0.111861   5.634889   0.002963   1.096446  -0.016581  -4.905275   0.380596   3.055445  -5.362650   3.853320  -1.228957 -20.798465   0.135287  -7.888224   0.014424   1.705164   0.052463   2.938881   0.123667  -1.217270  -0.634776   4.413919   0.003848  -0.002669  -6.373130  -2.913536   0.832176  -2.346278  -0.000756   0.004474   1.773789   0.673637  -0.101013  11.943039   0.007167   0.010100 -10.945863   3.768874   2.245805   0.324466  -0.000594   0.001329
 -2.370860   0.920926   3.984542  -2.190316   0.935589  -0.921115   1.079134  -1.291696   1.878885  -0.158893  -1.267240   1.059129  -0.751922   0.846726   0.385210   0.131415  -3.654303   5.177129   1.576976   1.580663  24.827423   0.112691   6.325400   0.002997   1.115903  -0.079429  -3.933241   0.525188   3.343439  -6.012358   3.939067  -1.527720 -23.720928   0.132945  -8.759114   0.012178   1.802995  -0.029061   1.962986  -0.236759  -1.540011  -0.359600   5.592147   0.003734  -0.004787  -6.400754  -3.323853   1.102480  -2.388071  -0.000572   0.003821   2.399502   0.743247   0.041517  12.366964   0.006743   0.008360 -12.136392   4.267312   2.730936   0.509959  -0.000833   0.002115
 -2.369853   0.920044   3.985433  -2.308681   1.070404  -1.192485   1.207239  -1.446768   2.243528  -0.338159  -1.437874   1.276751  -0.936056   0.923389   0.411364   0.280384  -4.106948   5.625136   1.793835   1.743221  27.501301   0.109499   6.969857   0.003033   1.135381  -0.142968  -3.041840   0.654449   3.585871  -6.501658   3.999530  -1.826270 -26.386343   0.127023  -9.579882   0.010473   1.898203  -0.152082   1.063052  -0.542750  -1.824163  -0.196279   6.602321   0.003612  -0.005312  -6.631069  -3.691543   1.312080  -2.396875  -0.000455   0.003097   2.951882   0.812904  -0.011771  12.735882   0.006596   0.007020 -13.255907   4.721739   3.193297   0.664947  -0.000801   0.002586
 -2.368745   0.919222   3.986169  -2.391155   1.203225  -1.425454   1.334278  -1.598520   2.558004  -0.507011  -1.609311   1.465724  -1.110051   0.995264   0.434031   0.419015  -4.523725   5.968722   1.986560   1.907289  29.948215   0.103733   7.573059   0.003016   1.155574  -0.198430  -2.270167   0.768009   3.793313  -6.871248   4.037480  -2.117698 -28.814892   0.118920 -10.351171   0.009269   1.990375  -0.300055   0.297740  -0.831195  -2.080778  -0.077656   7.494543   0.003477  -0.005356  -6.893297  -4.031670   1.496458  -2.419896  -0.000357   0.002572   3.447135   0.883957  -0.165727  13.071685   0.006545   0.005871 -14.306372   5.136012   3.632681   0.798078  -0.000657   0.002797
 -2.367583   0.918406   3.986767  -2.447122   1.318422  -1.649432   1.465310  -1.742653   2.844435  -0.660138  -1.774532   1.637190  -1.272404   1.062433   0.454508   0.544920  -4.903765   6.226432   2.155616   2.073346  32.188382   0.096476   8.138696   0.002951   1.176734  -0.240111  -1.615914   0.867019   3.972750  -7.147639   4.056404  -2.398674 -31.033351   0.109708 -11.074927   0.008461   2.079041  -0.463049  -0.340015  -1.112224  -2.317849   0.028261   8.301076   0.003321  -0.005266  -7.159703  -4.348840   1.663914  -2.444743  -0.000280   0.002154   3.899652   0.952509  -0.372843  13.380440   0.006500   0.004847 -15.290780   5.514247   4.049824   0.916840  -0.000473   0.002834
